:FULLY-SPECIFIED
:FORCE-ALL-JOINTS-BE-3DOF
:DEGREES
815
root 2.00426 16.5914 22.6726 5.24903 17.8321 356.223
lfemur -39.7043 -3.34297 -4.42346
ltibia 41.8756 0 0
lfoot -16.1047 0.329655 0
ltoes 13.6318 0 0
rfemur -6.33165 -1.10107 21.6992
rtibia 30.5059 0 0
rfoot -25.8298 -15.2486 0
rtoes -21.3614 0 0
lowerback 1.21139 5.30611 4.16752
upperback -0.213318 7.11186 -1.32626
thorax -0.210536 3.55074 -3.70969
lowerneck -5.83232 -3.01176 1.68118
upperneck -1.49084 -4.11248 2.30409
head 0.512783 -2.03207 0.341664
lclavicle -7.84718e-14 3.20253e-15 0
lhumerus -54.5921 -7.8206 92.2998
lradius 62.14 0 0
lwrist 23.5942 0 0
lhand -11.371 4.45207 0
lfingers 7.12502 0 0
lthumb 14.6626 33.9061 0
rclavicle -7.84718e-14 3.20253e-15 0
rhumerus -33.6802 46.5006 -116.18
rradius 71.9001 0 0
rwrist 1.43197 0 0
rhand -16.4007 -26.9092 0
rfingers 7.12502 0 0
rthumb 9.80866 -776.577 0
816
root 2.03224 16.5881 22.8159 5.02886 15.0129 355.537
lfemur -39.1874 -2.91732 -3.29831
ltibia 38.4125 0 0
lfoot -14.9843 2.49549 0
ltoes 14.468 0 0
rfemur -4.64646 -0.109994 21.8258
rtibia 28.8287 0 0
rfoot -25.3326 -15.0042 0
rtoes -22.0094 0 0
lowerback 1.05068 5.52153 4.40784
upperback -0.22932 7.3949 -1.15659
thorax -0.103285 3.69423 -3.64489
lowerneck -5.78264 -2.80557 1.8983
upperneck -1.28467 -3.85481 2.18445
head 0.565142 -1.90256 0.27407
lclavicle -6.72359e-14 2.75289e-15 0
lhumerus -54.4238 -7.61205 92.0755
lradius 60.7793 0 0
lwrist 22.8443 0 0
lhand -10.8322 4.55866 0
lfingers 7.12502 0 0
lthumb 15.1813 33.969 0
rclavicle -6.72359e-14 2.75289e-15 0
rhumerus -33.0842 46.3873 -115.193
rradius 71.2918 0 0
rwrist 0.884277 0 0
rhand -15.0793 -26.2838 0
rfingers 7.12502 0 0
rthumb 11.0826 -775.875 0
817
root 2.06022 16.5848 22.9591 4.84294 11.4609 354.808
lfemur -38.5506 -2.45164 -1.93883
ltibia 34.2405 0 0
lfoot -13.6058 5.01626 0
ltoes 15.4196 0 0
rfemur -2.61793 1.11833 21.9421
rtibia 26.8587 0 0
rfoot -24.6556 -14.6063 0
rtoes -22.7829 0 0
lowerback 0.854377 5.78046 4.70154
upperback -0.247439 7.73519 -0.943338
thorax 0.0278092 3.86667 -3.55986
lowerneck -5.72542 -2.55112 2.16637
upperneck -1.01526 -3.53745 2.03167
head 0.634798 -1.74286 0.188689
lclavicle -5.3942e-14 2.21387e-15 0
lhumerus -54.222 -7.34702 91.7894
lradius 59.1181 0 0
lwrist 21.9639 0 0
lhand -10.156 4.70999 0
lfingers 7.12502 0 0
lthumb 15.8323 34.0661 0
rclavicle -5.3942e-14 2.21387e-15 0
rhumerus -32.3833 46.2046 -113.952
rradius 70.5144 0 0
rwrist 0.229438 0 0
rhand -13.5168 -25.5505 0
rfingers 7.12502 0 0
rthumb 12.5889 -775.05 0
818
root 2.0882 16.5814 23.1024 4.70347 7.09755 354.043
lfemur -37.783 -1.94746 -0.322625
ltibia 29.297 0 0
lfoot -11.9448 7.91639 0
ltoes 16.4937 0 0
rfemur -0.214941 2.60943 22.0462
rtibia 24.5684 0 0
rfoot -23.7821 -14.0352 0
rtoes -23.6921 0 0
lowerback 0.619349 6.08674 5.05424
upperback -0.267679 8.13777 -0.682034
thorax 0.18506 4.07062 -3.45269
lowerneck -5.6602 -2.24342 2.49042
upperneck -0.676305 -3.1542 1.84209
head 0.723475 -1.54987 0.0836393
lclavicle -3.84439e-14 1.57941e-15 0
lhumerus -53.9839 -7.01957 91.4352
lradius 57.1283 0 0
lwrist 20.9446 0 0
lhand -9.32823 4.9123 0
lfingers 7.12502 0 0
lthumb 16.6293 34.2026 0
rclavicle -3.84439e-14 1.57941e-15 0
rhumerus -31.5696 45.9448 -112.433
rradius 69.5505 0 0
rwrist -0.542474 0 0
rhand -11.6921 -24.7016 0
rfingers 7.12502 0 0
rthumb 14.348 -774.093 0
819
root 2.11618 16.5781 23.2456 4.62265 1.84417 353.246
lfemur -36.874 -1.40629 1.57268
ltibia 23.5189 0 0
lfoot -9.97705 11.2203 0
ltoes 17.6974 0 0
rfemur 2.59362 4.38883 22.1361
rtibia 21.9303 0 0
rfoot -22.6954 -13.2714 0
rtoes -24.7473 0 0
lowerback 0.342463 6.44419 5.47158
upperback -0.290044 8.60772 -0.368209
thorax 0.370782 4.30863 -3.32145
lowerneck -5.58649 -1.87747 2.87547
upperneck -0.261487 -2.69888 1.61204
head 0.832893 -1.32046 -0.0429588
lclavicle -2.05948e-14 8.43476e-16 0
lhumerus -53.7063 -6.62378 91.0068
lradius 54.7821 0 0
lwrist 19.7775 0 0
lhand -8.33482 5.17186 0
lfingers 7.12502 0 0
lthumb 17.5858 34.3837 0
rclavicle -2.05948e-14 8.43476e-16 0
rhumerus -30.6353 45.6002 -110.613
rradius 68.3828 0 0
rwrist -1.44139 0 0
rhand -9.58425 -23.7297 0
rfingers 7.12502 0 0
rthumb 16.38 -772.995 0
820
root 2.14416 16.5748 23.3889 4.61266 -4.37788 352.424
lfemur -35.8129 -0.829675 3.76948
ltibia 16.8436 0 0
lfoot -7.6782 14.9523 0
ltoes 19.0378 0 0
rfemur 5.83887 6.48206 22.2095
rtibia 18.917 0 0
rfoot -21.3786 -12.2951 0
rtoes -25.9589 0 0
lowerback 0.0205861 6.85666 5.95921
upperback -0.314538 9.1501 0.00260752
thorax 0.58729 4.58326 -3.16423
lowerneck -5.50381 -1.44827 3.32656
upperneck 0.235501 -2.16531 1.33786
head 0.964776 -1.05151 -0.192986
lclavicle -2.48481e-16 0 0
lhumerus -53.3862 -6.15374 90.498
lradius 52.0513 0 0
lwrist 18.4542 0 0
lhand -7.16163 5.49493 0
lfingers 7.12502 0 0
lthumb 18.7154 34.6146 0
rclavicle -2.48481e-16 0 0
rhumerus -29.5725 45.1631 -108.471
rradius 66.9941 0 0
rwrist -2.47723 0 0
rhand -7.17223 -22.6272 0
rfingers 7.12502 0 0
rthumb 18.7052 -771.748 0
821
root 2.21344 16.5597 23.5727 4.48311 -5.01785 352.401
lfemur -35.6042 -0.75595 3.78439
ltibia 16.4087 0 0
lfoot -7.36156 15.0154 0
ltoes 18.8183 0 0
rfemur 6.00991 6.49196 21.9352
rtibia 19.4822 0 0
rfoot -20.479 -11.7242 0
rtoes -26.0726 0 0
lowerback -0.0486727 6.88661 5.94135
upperback -0.329187 9.18946 0.0608067
thorax 0.602864 4.60313 -3.0908
lowerneck -5.50652 -1.4334 3.37246
upperneck 0.427651 -2.15309 1.30253
head 1.02684 -1.0427 -0.214002
lclavicle 2.42771e-15 -2.26796e-16 0
lhumerus -53.4056 -6.05144 90.3711
lradius 51.7767 0 0
lwrist 18.2869 0 0
lhand -7.01026 5.51549 0
lfingers 7.12502 0 0
lthumb 18.8612 34.6234 0
rclavicle 2.42771e-15 -2.26796e-16 0
rhumerus -29.5164 44.812 -107.778
rradius 66.6621 0 0
rwrist -2.43334 0 0
rhand -7.32874 -22.5472 0
rfingers 7.12502 0 0
rthumb 18.554 -771.666 0
